<?xml version="1.0" encoding="UTF-8" standalone="no"?>
<!DOCTYPE svg PUBLIC "-//W3C//DTD SVG 1.1//EN" "http://www.w3.org/Graphics/SVG/1.1/DTD/svg11.dtd">
<svg width="100%" height="100%" viewBox="0 0 500 500" version="1.1" xmlns="http://www.w3.org/2000/svg" xmlns:xlink="http://www.w3.org/1999/xlink" xml:space="preserve" xmlns:serif="http://www.serif.com/" style="fill-rule:evenodd;clip-rule:evenodd;stroke-linejoin:round;stroke-miterlimit:2;">
    <g transform="matrix(1,0,0,1,-18.5,-32.5)">
        <path d="M486,152C486,103.983 447.017,65 399,65L138,65C89.983,65 51,103.983 51,152L51,413C51,461.017 89.983,500 138,500L399,500C447.017,500 486,461.017 486,413L486,152Z" style="fill:url(#_Linear1);"/>
    </g>
    <g transform="matrix(16.1458,0,0,16.1458,56.25,56.25)">
        <rect x="0" y="0" width="24" height="24" style="fill:none;fill-rule:nonzero;"/>
        <path d="M12,22C6.477,22 2,17.523 2,12C2,6.477 6.477,2 12,2C17.523,2 22,6.477 22,12C22,17.523 17.523,22 12,22ZM16.82,17.076C18.214,15.755 19.005,13.916 19.005,11.996C19.005,8.155 15.845,4.996 12.005,4.996C10.977,4.996 9.962,5.222 9.032,5.658L10.007,7.413C10.636,7.14 11.314,6.999 12,6.999C14.743,6.999 17,9.256 17,11.999C17,11.999 17,12 17,12L14,12L16.82,17.076ZM14.968,18.342L13.993,16.587C13.364,16.86 12.686,17.001 12,17.001C9.257,17.001 7,14.744 7,12.001C7,12.001 7,12 7,12L10,12L7.18,6.924C5.786,8.245 4.995,10.084 4.995,12.004C4.995,15.845 8.155,19.004 11.995,19.004C13.023,19.004 14.038,18.778 14.968,18.342Z" style="fill:white;fill-rule:nonzero;"/>
    </g>
    <defs>
        <linearGradient id="_Linear1" x1="0" y1="0" x2="1" y2="0" gradientUnits="userSpaceOnUse" gradientTransform="matrix(435,0,0,435,51,282.5)"><stop offset="0" style="stop-color:rgb(65,88,208);stop-opacity:1"/><stop offset="0" style="stop-color:rgb(200,80,192);stop-opacity:1"/><stop offset="1" style="stop-color:rgb(255,204,112);stop-opacity:1"/></linearGradient>
    </defs>
</svg>
