<?xml version="1.0" encoding="UTF-8" standalone="no"?>
<!DOCTYPE svg PUBLIC "-//W3C//DTD SVG 1.1//EN" "http://www.w3.org/Graphics/SVG/1.1/DTD/svg11.dtd">
<svg width="100%" height="100%" viewBox="0 0 500 500" version="1.1" xmlns="http://www.w3.org/2000/svg" xmlns:xlink="http://www.w3.org/1999/xlink" xml:space="preserve" xmlns:serif="http://www.serif.com/" style="fill-rule:evenodd;clip-rule:evenodd;stroke-linejoin:round;stroke-miterlimit:2;">
    <g transform="matrix(1,0,0,1,-18.5,-32.5)">
        <path d="M486,152C486,103.983 447.017,65 399,65L138,65C89.983,65 51,103.983 51,152L51,413C51,461.017 89.983,500 138,500L399,500C447.017,500 486,461.017 486,413L486,152Z" style="fill:url(#_Linear1);"/>
    </g>
    <g transform="matrix(-1,1.22465e-16,-1.22465e-16,-1,473,534.5)">
        <path d="M193,213.6C193,196.159 178.841,182 161.4,182L145.6,182C128.159,182 114,196.159 114,213.6L114,355.4C114,372.841 128.159,387 145.6,387L161.4,387C178.841,387 193,372.841 193,355.4L193,213.6Z" style="fill:white;"/>
    </g>
    <g transform="matrix(-1,1.22465e-16,-1.22465e-16,-1,334,534.5)">
        <path d="M193,213.6C193,196.159 178.841,182 161.4,182L145.6,182C128.159,182 114,196.159 114,213.6L114,355.4C114,372.841 128.159,387 145.6,387L161.4,387C178.841,387 193,372.841 193,355.4L193,213.6Z" style="fill:white;"/>
    </g>
    <defs>
        <linearGradient id="_Linear1" x1="0" y1="0" x2="1" y2="0" gradientUnits="userSpaceOnUse" gradientTransform="matrix(435,0,0,435,51,282.5)"><stop offset="0" style="stop-color:rgb(65,88,208);stop-opacity:1"/><stop offset="0" style="stop-color:rgb(200,80,192);stop-opacity:1"/><stop offset="1" style="stop-color:rgb(255,204,112);stop-opacity:1"/></linearGradient>
    </defs>
</svg>
